<svg width="209" height="246" viewBox="0 0 209 246" fill="none" xmlns="http://www.w3.org/2000/svg">
<g clip-path="url(#clip0_1_303)">
<path d="M45.0469 43.0381H149.585V162.093C149.585 167.063 145.555 171.093 140.585 171.093H45.0469V43.0381Z" fill="#124559"/>
<path fill-rule="evenodd" clip-rule="evenodd" d="M187.884 56.9785C190.667 59.7567 190.667 64.2611 187.884 67.0394L151.55 103.305C147.838 107.009 141.821 107.009 138.11 103.305L120.783 86.0104C117.999 83.2321 117.999 78.7277 120.783 75.9495C123.566 73.1712 128.079 73.1712 130.863 75.9495L144.83 89.8901L177.804 56.9785C180.587 54.2002 185.1 54.2002 187.884 56.9785Z" fill="#AEC3B0" stroke="white" stroke-width="3" stroke-linecap="round"/>
<path d="M11.3505 29.1051L19.8954 36.1763L30.8377 34.3168L23.7504 42.8296L25.6237 53.7389L17.0789 46.6677L6.13658 48.5272L13.2238 40.0144L11.3505 29.1051Z" fill="#AEC3B0"/>
<path d="M194.12 153.882L195.117 165.837L204.858 172.864L192.881 173.858L185.841 183.582L184.844 171.627L175.103 164.6L187.08 163.605L194.12 153.882Z" fill="#AEC3B0"/>
<line x1="13.5" y1="169.958" x2="13.5" y2="214.386" stroke="#AEC3B0" stroke-width="3" stroke-linecap="round"/>
<line x1="34.8828" y1="203.158" x2="34.8828" y2="221.5" stroke="#AEC3B0" stroke-width="3" stroke-linecap="round"/>
<line x1="167.508" y1="194.869" x2="167.508" y2="206.098" stroke="#AEC3B0" stroke-width="3" stroke-linecap="round"/>
<line x1="148.5" y1="199.612" x2="148.5" y2="210.84" stroke="#AEC3B0" stroke-width="3" stroke-linecap="round"/>
<path fill-rule="evenodd" clip-rule="evenodd" d="M130.578 149.75H33.1641V162.092C33.1641 167.063 37.1935 171.092 42.1641 171.092H140.056C134.819 171.079 130.578 166.829 130.578 161.589V149.75ZM140.107 171.092H142.454V170.794C141.703 170.987 140.917 171.09 140.107 171.092Z" fill="#AEC3B0"/>
<line x1="76.9297" y1="57" x2="115.319" y2="57" stroke="white" stroke-width="2" stroke-linecap="round"/>
<line x1="81.6797" y1="65.5405" x2="110.566" y2="65.5405" stroke="white" stroke-width="2" stroke-linecap="round"/>
<line x1="57.9219" y1="86.2776" x2="77.3047" y2="86.2776" stroke="white" stroke-width="2" stroke-linecap="round"/>
<line x1="57.9219" y1="117.106" x2="77.3047" y2="117.106" stroke="white" stroke-width="2" stroke-linecap="round"/>
<line x1="57.9219" y1="95.7632" x2="86.8081" y2="95.7632" stroke="white" stroke-width="2" stroke-linecap="round"/>
<line x1="57.9219" y1="126.591" x2="86.8081" y2="126.591" stroke="white" stroke-width="2" stroke-linecap="round"/>
<line x1="57.9219" y1="105.249" x2="93.9357" y2="105.249" stroke="white" stroke-width="2" stroke-linecap="round"/>
<line x1="57.9219" y1="136.077" x2="93.9357" y2="136.077" stroke="white" stroke-width="2" stroke-linecap="round"/>
</g>
<defs>
<clipPath id="clip0_1_303">
<rect width="209" height="246" fill="white"/>
</clipPath>
</defs>
</svg>
