<svg width="20" height="18" viewBox="0 0 20 18" fill="none" xmlns="http://www.w3.org/2000/svg">
<path d="M17 0C17.7956 0 18.5587 0.316071 19.1213 0.87868C19.6839 1.44129 20 2.20435 20 3V15C20 15.7956 19.6839 16.5587 19.1213 17.1213C18.5587 17.6839 17.7956 18 17 18H3C2.20435 18 1.44129 17.6839 0.87868 17.1213C0.316071 16.5587 0 15.7956 0 15V3C0 2.20435 0.316071 1.44129 0.87868 0.87868C1.44129 0.316071 2.20435 0 3 0H17ZM10 4C8.67392 4 7.40215 4.52678 6.46447 5.46447C5.52678 6.40215 5 7.67392 5 9C5 10.3261 5.52678 11.5979 6.46447 12.5355C7.40215 13.4732 8.67392 14 10 14C11.3261 14 12.5979 13.4732 13.5355 12.5355C14.4732 11.5979 15 10.3261 15 9C15 7.67392 14.4732 6.40215 13.5355 5.46447C12.5979 4.52678 11.3261 4 10 4ZM10 6C10.7956 6 11.5587 6.31607 12.1213 6.87868C12.6839 7.44129 13 8.20435 13 9C13 9.79565 12.6839 10.5587 12.1213 11.1213C11.5587 11.6839 10.7956 12 10 12C9.20435 12 8.44129 11.6839 7.87868 11.1213C7.31607 10.5587 7 9.79565 7 9C7 8.20435 7.31607 7.44129 7.87868 6.87868C8.44129 6.31607 9.20435 6 10 6ZM17 3H16C15.7451 3.00028 15.5 3.09788 15.3146 3.27285C15.1293 3.44782 15.0178 3.68695 15.0028 3.94139C14.9879 4.19584 15.0707 4.44638 15.2343 4.64183C15.3979 4.83729 15.6299 4.9629 15.883 4.993L16 5H17C17.2549 4.99972 17.5 4.90212 17.6854 4.72715C17.8707 4.55218 17.9822 4.31305 17.9972 4.05861C18.0121 3.80416 17.9293 3.55362 17.7657 3.35817C17.6021 3.16271 17.3701 3.0371 17.117 3.007L17 3Z" fill="#F1F6FA"/>
</svg>
